<?xml version="1.0" encoding="UTF-8" standalone="no"?>
<!DOCTYPE svg PUBLIC "-//W3C//DTD SVG 1.1//EN"
 "http://www.w3.org/Graphics/SVG/1.1/DTD/svg11.dtd">
<!-- Generated by graphviz version 2.50.0 (0)
 -->
<!-- Title: Tree Pages: 1 -->
<svg width="558pt" height="433pt"
 viewBox="0.00 0.00 558.00 433.00" xmlns="http://www.w3.org/2000/svg" xmlns:xlink="http://www.w3.org/1999/xlink">
<g id="graph0" class="graph" transform="scale(1 1) rotate(0) translate(4 429)">
<title>Tree</title>
<polygon fill="white" stroke="transparent" points="-4,4 -4,-429 554,-429 554,4 -4,4"/>
<!-- 0 -->
<g id="node1" class="node">
<title>0</title>
<polygon fill="#fffdfd" stroke="black" points="279.5,-425 111.5,-425 111.5,-342 279.5,-342 279.5,-425"/>
<text text-anchor="middle" x="195.5" y="-409.8" font-family="Helvetica,sans-Serif" font-size="14.00">petal length (cm) &lt;= 2.45</text>
<text text-anchor="middle" x="195.5" y="-394.8" font-family="Helvetica,sans-Serif" font-size="14.00">gini = 0.667</text>
<text text-anchor="middle" x="195.5" y="-379.8" font-family="Helvetica,sans-Serif" font-size="14.00">samples = 120</text>
<text text-anchor="middle" x="195.5" y="-364.8" font-family="Helvetica,sans-Serif" font-size="14.00">value = [41, 40, 39]</text>
<text text-anchor="middle" x="195.5" y="-349.8" font-family="Helvetica,sans-Serif" font-size="14.00">class = setosa</text>
</g>
<!-- 1 -->
<g id="node2" class="node">
<title>1</title>
<polygon fill="#e58139" stroke="black" points="175,-298.5 58,-298.5 58,-230.5 175,-230.5 175,-298.5"/>
<text text-anchor="middle" x="116.5" y="-283.3" font-family="Helvetica,sans-Serif" font-size="14.00">gini = 0.0</text>
<text text-anchor="middle" x="116.5" y="-268.3" font-family="Helvetica,sans-Serif" font-size="14.00">samples = 41</text>
<text text-anchor="middle" x="116.5" y="-253.3" font-family="Helvetica,sans-Serif" font-size="14.00">value = [41, 0, 0]</text>
<text text-anchor="middle" x="116.5" y="-238.3" font-family="Helvetica,sans-Serif" font-size="14.00">class = setosa</text>
</g>
<!-- 0&#45;&gt;1 -->
<g id="edge1" class="edge">
<title>0&#45;&gt;1</title>
<path fill="none" stroke="black" d="M168.09,-341.91C160.49,-330.65 152.23,-318.42 144.59,-307.11"/>
<polygon fill="black" stroke="black" points="147.39,-305 138.89,-298.67 141.59,-308.91 147.39,-305"/>
<text text-anchor="middle" x="134.14" y="-319.51" font-family="Helvetica,sans-Serif" font-size="14.00">True</text>
</g>
<!-- 2 -->
<g id="node3" class="node">
<title>2</title>
<polygon fill="#fafefc" stroke="black" points="356,-306 193,-306 193,-223 356,-223 356,-306"/>
<text text-anchor="middle" x="274.5" y="-290.8" font-family="Helvetica,sans-Serif" font-size="14.00">petal width (cm) &lt;= 1.55</text>
<text text-anchor="middle" x="274.5" y="-275.8" font-family="Helvetica,sans-Serif" font-size="14.00">gini = 0.5</text>
<text text-anchor="middle" x="274.5" y="-260.8" font-family="Helvetica,sans-Serif" font-size="14.00">samples = 79</text>
<text text-anchor="middle" x="274.5" y="-245.8" font-family="Helvetica,sans-Serif" font-size="14.00">value = [0, 40, 39]</text>
<text text-anchor="middle" x="274.5" y="-230.8" font-family="Helvetica,sans-Serif" font-size="14.00">class = versicolor</text>
</g>
<!-- 0&#45;&gt;2 -->
<g id="edge2" class="edge">
<title>0&#45;&gt;2</title>
<path fill="none" stroke="black" d="M222.91,-341.91C228.91,-333.01 235.33,-323.51 241.53,-314.33"/>
<polygon fill="black" stroke="black" points="244.44,-316.27 247.14,-306.02 238.64,-312.35 244.44,-316.27"/>
<text text-anchor="middle" x="251.9" y="-326.86" font-family="Helvetica,sans-Serif" font-size="14.00">False</text>
</g>
<!-- 3 -->
<g id="node4" class="node">
<title>3</title>
<polygon fill="#3ee684" stroke="black" points="266.5,-187 98.5,-187 98.5,-104 266.5,-104 266.5,-187"/>
<text text-anchor="middle" x="182.5" y="-171.8" font-family="Helvetica,sans-Serif" font-size="14.00">petal length (cm) &lt;= 5.25</text>
<text text-anchor="middle" x="182.5" y="-156.8" font-family="Helvetica,sans-Serif" font-size="14.00">gini = 0.051</text>
<text text-anchor="middle" x="182.5" y="-141.8" font-family="Helvetica,sans-Serif" font-size="14.00">samples = 38</text>
<text text-anchor="middle" x="182.5" y="-126.8" font-family="Helvetica,sans-Serif" font-size="14.00">value = [0, 37, 1]</text>
<text text-anchor="middle" x="182.5" y="-111.8" font-family="Helvetica,sans-Serif" font-size="14.00">class = versicolor</text>
</g>
<!-- 2&#45;&gt;3 -->
<g id="edge3" class="edge">
<title>2&#45;&gt;3</title>
<path fill="none" stroke="black" d="M242.58,-222.91C235.52,-213.92 227.96,-204.32 220.68,-195.05"/>
<polygon fill="black" stroke="black" points="223.3,-192.72 214.36,-187.02 217.79,-197.05 223.3,-192.72"/>
</g>
<!-- 6 -->
<g id="node7" class="node">
<title>6</title>
<polygon fill="#8b49e7" stroke="black" points="448,-187 285,-187 285,-104 448,-104 448,-187"/>
<text text-anchor="middle" x="366.5" y="-171.8" font-family="Helvetica,sans-Serif" font-size="14.00">petal width (cm) &lt;= 1.75</text>
<text text-anchor="middle" x="366.5" y="-156.8" font-family="Helvetica,sans-Serif" font-size="14.00">gini = 0.136</text>
<text text-anchor="middle" x="366.5" y="-141.8" font-family="Helvetica,sans-Serif" font-size="14.00">samples = 41</text>
<text text-anchor="middle" x="366.5" y="-126.8" font-family="Helvetica,sans-Serif" font-size="14.00">value = [0, 3, 38]</text>
<text text-anchor="middle" x="366.5" y="-111.8" font-family="Helvetica,sans-Serif" font-size="14.00">class = virginica</text>
</g>
<!-- 2&#45;&gt;6 -->
<g id="edge6" class="edge">
<title>2&#45;&gt;6</title>
<path fill="none" stroke="black" d="M306.42,-222.91C313.48,-213.92 321.04,-204.32 328.32,-195.05"/>
<polygon fill="black" stroke="black" points="331.21,-197.05 334.64,-187.02 325.7,-192.72 331.21,-197.05"/>
</g>
<!-- 4 -->
<g id="node5" class="node">
<title>4</title>
<polygon fill="#39e581" stroke="black" points="121,-68 0,-68 0,0 121,0 121,-68"/>
<text text-anchor="middle" x="60.5" y="-52.8" font-family="Helvetica,sans-Serif" font-size="14.00">gini = 0.0</text>
<text text-anchor="middle" x="60.5" y="-37.8" font-family="Helvetica,sans-Serif" font-size="14.00">samples = 37</text>
<text text-anchor="middle" x="60.5" y="-22.8" font-family="Helvetica,sans-Serif" font-size="14.00">value = [0, 37, 0]</text>
<text text-anchor="middle" x="60.5" y="-7.8" font-family="Helvetica,sans-Serif" font-size="14.00">class = versicolor</text>
</g>
<!-- 3&#45;&gt;4 -->
<g id="edge4" class="edge">
<title>3&#45;&gt;4</title>
<path fill="none" stroke="black" d="M137.07,-103.73C126.6,-94.33 115.48,-84.35 105.05,-74.99"/>
<polygon fill="black" stroke="black" points="107.38,-72.37 97.6,-68.3 102.71,-77.58 107.38,-72.37"/>
</g>
<!-- 5 -->
<g id="node6" class="node">
<title>5</title>
<polygon fill="#8139e5" stroke="black" points="252,-68 139,-68 139,0 252,0 252,-68"/>
<text text-anchor="middle" x="195.5" y="-52.8" font-family="Helvetica,sans-Serif" font-size="14.00">gini = 0.0</text>
<text text-anchor="middle" x="195.5" y="-37.8" font-family="Helvetica,sans-Serif" font-size="14.00">samples = 1</text>
<text text-anchor="middle" x="195.5" y="-22.8" font-family="Helvetica,sans-Serif" font-size="14.00">value = [0, 0, 1]</text>
<text text-anchor="middle" x="195.5" y="-7.8" font-family="Helvetica,sans-Serif" font-size="14.00">class = virginica</text>
</g>
<!-- 3&#45;&gt;5 -->
<g id="edge5" class="edge">
<title>3&#45;&gt;5</title>
<path fill="none" stroke="black" d="M187.34,-103.73C188.33,-95.43 189.37,-86.67 190.36,-78.28"/>
<polygon fill="black" stroke="black" points="193.84,-78.64 191.55,-68.3 186.89,-77.82 193.84,-78.64"/>
</g>
<!-- 7 -->
<g id="node8" class="node">
<title>7</title>
<polygon fill="#ffffff" stroke="black" points="415,-68 294,-68 294,0 415,0 415,-68"/>
<text text-anchor="middle" x="354.5" y="-52.8" font-family="Helvetica,sans-Serif" font-size="14.00">gini = 0.5</text>
<text text-anchor="middle" x="354.5" y="-37.8" font-family="Helvetica,sans-Serif" font-size="14.00">samples = 4</text>
<text text-anchor="middle" x="354.5" y="-22.8" font-family="Helvetica,sans-Serif" font-size="14.00">value = [0, 2, 2]</text>
<text text-anchor="middle" x="354.5" y="-7.8" font-family="Helvetica,sans-Serif" font-size="14.00">class = versicolor</text>
</g>
<!-- 6&#45;&gt;7 -->
<g id="edge7" class="edge">
<title>6&#45;&gt;7</title>
<path fill="none" stroke="black" d="M362.03,-103.73C361.12,-95.43 360.16,-86.67 359.24,-78.28"/>
<polygon fill="black" stroke="black" points="362.72,-77.86 358.15,-68.3 355.76,-78.62 362.72,-77.86"/>
</g>
<!-- 8 -->
<g id="node9" class="node">
<title>8</title>
<polygon fill="#843ee6" stroke="black" points="550,-68 433,-68 433,0 550,0 550,-68"/>
<text text-anchor="middle" x="491.5" y="-52.8" font-family="Helvetica,sans-Serif" font-size="14.00">gini = 0.053</text>
<text text-anchor="middle" x="491.5" y="-37.8" font-family="Helvetica,sans-Serif" font-size="14.00">samples = 37</text>
<text text-anchor="middle" x="491.5" y="-22.8" font-family="Helvetica,sans-Serif" font-size="14.00">value = [0, 1, 36]</text>
<text text-anchor="middle" x="491.5" y="-7.8" font-family="Helvetica,sans-Serif" font-size="14.00">class = virginica</text>
</g>
<!-- 6&#45;&gt;8 -->
<g id="edge8" class="edge">
<title>6&#45;&gt;8</title>
<path fill="none" stroke="black" d="M413.05,-103.73C423.77,-94.33 435.17,-84.35 445.85,-74.99"/>
<polygon fill="black" stroke="black" points="448.27,-77.52 453.49,-68.3 443.66,-72.26 448.27,-77.52"/>
</g>
</g>
</svg>
