<?xml version="1.0" encoding="UTF-8" standalone="no"?>
<!DOCTYPE svg PUBLIC "-//W3C//DTD SVG 1.1//EN"
 "http://www.w3.org/Graphics/SVG/1.1/DTD/svg11.dtd">
<!-- Generated by graphviz version 2.50.0 (0)
 -->
<!-- Title: Tree Pages: 1 -->
<svg width="741pt" height="552pt"
 viewBox="0.00 0.00 741.00 552.00" xmlns="http://www.w3.org/2000/svg" xmlns:xlink="http://www.w3.org/1999/xlink">
<g id="graph0" class="graph" transform="scale(1 1) rotate(0) translate(4 548)">
<title>Tree</title>
<polygon fill="white" stroke="transparent" points="-4,4 -4,-548 737,-548 737,4 -4,4"/>
<!-- 0 -->
<g id="node1" class="node">
<title>0</title>
<polygon fill="#fffdfd" stroke="black" points="286.5,-544 118.5,-544 118.5,-461 286.5,-461 286.5,-544"/>
<text text-anchor="middle" x="202.5" y="-528.8" font-family="Helvetica,sans-Serif" font-size="14.00">petal length (cm) &lt;= 2.45</text>
<text text-anchor="middle" x="202.5" y="-513.8" font-family="Helvetica,sans-Serif" font-size="14.00">gini = 0.667</text>
<text text-anchor="middle" x="202.5" y="-498.8" font-family="Helvetica,sans-Serif" font-size="14.00">samples = 120</text>
<text text-anchor="middle" x="202.5" y="-483.8" font-family="Helvetica,sans-Serif" font-size="14.00">value = [41, 40, 39]</text>
<text text-anchor="middle" x="202.5" y="-468.8" font-family="Helvetica,sans-Serif" font-size="14.00">class = setosa</text>
</g>
<!-- 1 -->
<g id="node2" class="node">
<title>1</title>
<polygon fill="#e58139" stroke="black" points="182,-417.5 65,-417.5 65,-349.5 182,-349.5 182,-417.5"/>
<text text-anchor="middle" x="123.5" y="-402.3" font-family="Helvetica,sans-Serif" font-size="14.00">gini = 0.0</text>
<text text-anchor="middle" x="123.5" y="-387.3" font-family="Helvetica,sans-Serif" font-size="14.00">samples = 41</text>
<text text-anchor="middle" x="123.5" y="-372.3" font-family="Helvetica,sans-Serif" font-size="14.00">value = [41, 0, 0]</text>
<text text-anchor="middle" x="123.5" y="-357.3" font-family="Helvetica,sans-Serif" font-size="14.00">class = setosa</text>
</g>
<!-- 0&#45;&gt;1 -->
<g id="edge1" class="edge">
<title>0&#45;&gt;1</title>
<path fill="none" stroke="black" d="M175.09,-460.91C167.49,-449.65 159.23,-437.42 151.59,-426.11"/>
<polygon fill="black" stroke="black" points="154.39,-424 145.89,-417.67 148.59,-427.91 154.39,-424"/>
<text text-anchor="middle" x="141.14" y="-438.51" font-family="Helvetica,sans-Serif" font-size="14.00">True</text>
</g>
<!-- 2 -->
<g id="node3" class="node">
<title>2</title>
<polygon fill="#fafefc" stroke="black" points="363,-425 200,-425 200,-342 363,-342 363,-425"/>
<text text-anchor="middle" x="281.5" y="-409.8" font-family="Helvetica,sans-Serif" font-size="14.00">petal width (cm) &lt;= 1.55</text>
<text text-anchor="middle" x="281.5" y="-394.8" font-family="Helvetica,sans-Serif" font-size="14.00">gini = 0.5</text>
<text text-anchor="middle" x="281.5" y="-379.8" font-family="Helvetica,sans-Serif" font-size="14.00">samples = 79</text>
<text text-anchor="middle" x="281.5" y="-364.8" font-family="Helvetica,sans-Serif" font-size="14.00">value = [0, 40, 39]</text>
<text text-anchor="middle" x="281.5" y="-349.8" font-family="Helvetica,sans-Serif" font-size="14.00">class = versicolor</text>
</g>
<!-- 0&#45;&gt;2 -->
<g id="edge2" class="edge">
<title>0&#45;&gt;2</title>
<path fill="none" stroke="black" d="M229.91,-460.91C235.91,-452.01 242.33,-442.51 248.53,-433.33"/>
<polygon fill="black" stroke="black" points="251.44,-435.27 254.14,-425.02 245.64,-431.35 251.44,-435.27"/>
<text text-anchor="middle" x="258.9" y="-445.86" font-family="Helvetica,sans-Serif" font-size="14.00">False</text>
</g>
<!-- 3 -->
<g id="node4" class="node">
<title>3</title>
<polygon fill="#3ee684" stroke="black" points="273.5,-306 105.5,-306 105.5,-223 273.5,-223 273.5,-306"/>
<text text-anchor="middle" x="189.5" y="-290.8" font-family="Helvetica,sans-Serif" font-size="14.00">petal length (cm) &lt;= 5.25</text>
<text text-anchor="middle" x="189.5" y="-275.8" font-family="Helvetica,sans-Serif" font-size="14.00">gini = 0.051</text>
<text text-anchor="middle" x="189.5" y="-260.8" font-family="Helvetica,sans-Serif" font-size="14.00">samples = 38</text>
<text text-anchor="middle" x="189.5" y="-245.8" font-family="Helvetica,sans-Serif" font-size="14.00">value = [0, 37, 1]</text>
<text text-anchor="middle" x="189.5" y="-230.8" font-family="Helvetica,sans-Serif" font-size="14.00">class = versicolor</text>
</g>
<!-- 2&#45;&gt;3 -->
<g id="edge3" class="edge">
<title>2&#45;&gt;3</title>
<path fill="none" stroke="black" d="M249.58,-341.91C242.52,-332.92 234.96,-323.32 227.68,-314.05"/>
<polygon fill="black" stroke="black" points="230.3,-311.72 221.36,-306.02 224.79,-316.05 230.3,-311.72"/>
</g>
<!-- 6 -->
<g id="node7" class="node">
<title>6</title>
<polygon fill="#8b49e7" stroke="black" points="455,-306 292,-306 292,-223 455,-223 455,-306"/>
<text text-anchor="middle" x="373.5" y="-290.8" font-family="Helvetica,sans-Serif" font-size="14.00">petal width (cm) &lt;= 1.75</text>
<text text-anchor="middle" x="373.5" y="-275.8" font-family="Helvetica,sans-Serif" font-size="14.00">gini = 0.136</text>
<text text-anchor="middle" x="373.5" y="-260.8" font-family="Helvetica,sans-Serif" font-size="14.00">samples = 41</text>
<text text-anchor="middle" x="373.5" y="-245.8" font-family="Helvetica,sans-Serif" font-size="14.00">value = [0, 3, 38]</text>
<text text-anchor="middle" x="373.5" y="-230.8" font-family="Helvetica,sans-Serif" font-size="14.00">class = virginica</text>
</g>
<!-- 2&#45;&gt;6 -->
<g id="edge6" class="edge">
<title>2&#45;&gt;6</title>
<path fill="none" stroke="black" d="M313.42,-341.91C320.48,-332.92 328.04,-323.32 335.32,-314.05"/>
<polygon fill="black" stroke="black" points="338.21,-316.05 341.64,-306.02 332.7,-311.72 338.21,-316.05"/>
</g>
<!-- 4 -->
<g id="node5" class="node">
<title>4</title>
<polygon fill="#39e581" stroke="black" points="121,-179.5 0,-179.5 0,-111.5 121,-111.5 121,-179.5"/>
<text text-anchor="middle" x="60.5" y="-164.3" font-family="Helvetica,sans-Serif" font-size="14.00">gini = 0.0</text>
<text text-anchor="middle" x="60.5" y="-149.3" font-family="Helvetica,sans-Serif" font-size="14.00">samples = 37</text>
<text text-anchor="middle" x="60.5" y="-134.3" font-family="Helvetica,sans-Serif" font-size="14.00">value = [0, 37, 0]</text>
<text text-anchor="middle" x="60.5" y="-119.3" font-family="Helvetica,sans-Serif" font-size="14.00">class = versicolor</text>
</g>
<!-- 3&#45;&gt;4 -->
<g id="edge4" class="edge">
<title>3&#45;&gt;4</title>
<path fill="none" stroke="black" d="M144.74,-222.91C131.73,-211.1 117.52,-198.22 104.55,-186.45"/>
<polygon fill="black" stroke="black" points="106.83,-183.79 97.07,-179.67 102.12,-188.98 106.83,-183.79"/>
</g>
<!-- 5 -->
<g id="node6" class="node">
<title>5</title>
<polygon fill="#8139e5" stroke="black" points="252,-179.5 139,-179.5 139,-111.5 252,-111.5 252,-179.5"/>
<text text-anchor="middle" x="195.5" y="-164.3" font-family="Helvetica,sans-Serif" font-size="14.00">gini = 0.0</text>
<text text-anchor="middle" x="195.5" y="-149.3" font-family="Helvetica,sans-Serif" font-size="14.00">samples = 1</text>
<text text-anchor="middle" x="195.5" y="-134.3" font-family="Helvetica,sans-Serif" font-size="14.00">value = [0, 0, 1]</text>
<text text-anchor="middle" x="195.5" y="-119.3" font-family="Helvetica,sans-Serif" font-size="14.00">class = virginica</text>
</g>
<!-- 3&#45;&gt;5 -->
<g id="edge5" class="edge">
<title>3&#45;&gt;5</title>
<path fill="none" stroke="black" d="M191.58,-222.91C192.13,-212.2 192.72,-200.62 193.28,-189.78"/>
<polygon fill="black" stroke="black" points="196.78,-189.83 193.8,-179.67 189.79,-189.47 196.78,-189.83"/>
</g>
<!-- 7 -->
<g id="node8" class="node">
<title>7</title>
<polygon fill="#ffffff" stroke="black" points="453,-187 282,-187 282,-104 453,-104 453,-187"/>
<text text-anchor="middle" x="367.5" y="-171.8" font-family="Helvetica,sans-Serif" font-size="14.00">sepal length (cm) &lt;= 5.45</text>
<text text-anchor="middle" x="367.5" y="-156.8" font-family="Helvetica,sans-Serif" font-size="14.00">gini = 0.5</text>
<text text-anchor="middle" x="367.5" y="-141.8" font-family="Helvetica,sans-Serif" font-size="14.00">samples = 4</text>
<text text-anchor="middle" x="367.5" y="-126.8" font-family="Helvetica,sans-Serif" font-size="14.00">value = [0, 2, 2]</text>
<text text-anchor="middle" x="367.5" y="-111.8" font-family="Helvetica,sans-Serif" font-size="14.00">class = versicolor</text>
</g>
<!-- 6&#45;&gt;7 -->
<g id="edge7" class="edge">
<title>6&#45;&gt;7</title>
<path fill="none" stroke="black" d="M371.42,-222.91C370.99,-214.56 370.53,-205.67 370.09,-197.02"/>
<polygon fill="black" stroke="black" points="373.59,-196.83 369.58,-187.02 366.59,-197.19 373.59,-196.83"/>
</g>
<!-- 10 -->
<g id="node11" class="node">
<title>10</title>
<polygon fill="#843ee6" stroke="black" points="639.5,-187 471.5,-187 471.5,-104 639.5,-104 639.5,-187"/>
<text text-anchor="middle" x="555.5" y="-171.8" font-family="Helvetica,sans-Serif" font-size="14.00">petal length (cm) &lt;= 4.85</text>
<text text-anchor="middle" x="555.5" y="-156.8" font-family="Helvetica,sans-Serif" font-size="14.00">gini = 0.053</text>
<text text-anchor="middle" x="555.5" y="-141.8" font-family="Helvetica,sans-Serif" font-size="14.00">samples = 37</text>
<text text-anchor="middle" x="555.5" y="-126.8" font-family="Helvetica,sans-Serif" font-size="14.00">value = [0, 1, 36]</text>
<text text-anchor="middle" x="555.5" y="-111.8" font-family="Helvetica,sans-Serif" font-size="14.00">class = virginica</text>
</g>
<!-- 6&#45;&gt;10 -->
<g id="edge10" class="edge">
<title>6&#45;&gt;10</title>
<path fill="none" stroke="black" d="M436.64,-222.91C451.89,-213.11 468.29,-202.56 483.89,-192.53"/>
<polygon fill="black" stroke="black" points="485.95,-195.37 492.47,-187.02 482.16,-189.48 485.95,-195.37"/>
</g>
<!-- 8 -->
<g id="node9" class="node">
<title>8</title>
<polygon fill="#8139e5" stroke="black" points="302,-68 189,-68 189,0 302,0 302,-68"/>
<text text-anchor="middle" x="245.5" y="-52.8" font-family="Helvetica,sans-Serif" font-size="14.00">gini = 0.0</text>
<text text-anchor="middle" x="245.5" y="-37.8" font-family="Helvetica,sans-Serif" font-size="14.00">samples = 1</text>
<text text-anchor="middle" x="245.5" y="-22.8" font-family="Helvetica,sans-Serif" font-size="14.00">value = [0, 0, 1]</text>
<text text-anchor="middle" x="245.5" y="-7.8" font-family="Helvetica,sans-Serif" font-size="14.00">class = virginica</text>
</g>
<!-- 7&#45;&gt;8 -->
<g id="edge8" class="edge">
<title>7&#45;&gt;8</title>
<path fill="none" stroke="black" d="M322.07,-103.73C311.6,-94.33 300.48,-84.35 290.05,-74.99"/>
<polygon fill="black" stroke="black" points="292.38,-72.37 282.6,-68.3 287.71,-77.58 292.38,-72.37"/>
</g>
<!-- 9 -->
<g id="node10" class="node">
<title>9</title>
<polygon fill="#9cf2c0" stroke="black" points="441,-68 320,-68 320,0 441,0 441,-68"/>
<text text-anchor="middle" x="380.5" y="-52.8" font-family="Helvetica,sans-Serif" font-size="14.00">gini = 0.444</text>
<text text-anchor="middle" x="380.5" y="-37.8" font-family="Helvetica,sans-Serif" font-size="14.00">samples = 3</text>
<text text-anchor="middle" x="380.5" y="-22.8" font-family="Helvetica,sans-Serif" font-size="14.00">value = [0, 2, 1]</text>
<text text-anchor="middle" x="380.5" y="-7.8" font-family="Helvetica,sans-Serif" font-size="14.00">class = versicolor</text>
</g>
<!-- 7&#45;&gt;9 -->
<g id="edge9" class="edge">
<title>7&#45;&gt;9</title>
<path fill="none" stroke="black" d="M372.34,-103.73C373.33,-95.43 374.37,-86.67 375.36,-78.28"/>
<polygon fill="black" stroke="black" points="378.84,-78.64 376.55,-68.3 371.89,-77.82 378.84,-78.64"/>
</g>
<!-- 11 -->
<g id="node12" class="node">
<title>11</title>
<polygon fill="#c09cf2" stroke="black" points="598,-68 485,-68 485,0 598,0 598,-68"/>
<text text-anchor="middle" x="541.5" y="-52.8" font-family="Helvetica,sans-Serif" font-size="14.00">gini = 0.444</text>
<text text-anchor="middle" x="541.5" y="-37.8" font-family="Helvetica,sans-Serif" font-size="14.00">samples = 3</text>
<text text-anchor="middle" x="541.5" y="-22.8" font-family="Helvetica,sans-Serif" font-size="14.00">value = [0, 1, 2]</text>
<text text-anchor="middle" x="541.5" y="-7.8" font-family="Helvetica,sans-Serif" font-size="14.00">class = virginica</text>
</g>
<!-- 10&#45;&gt;11 -->
<g id="edge11" class="edge">
<title>10&#45;&gt;11</title>
<path fill="none" stroke="black" d="M550.29,-103.73C549.23,-95.43 548.11,-86.67 547.03,-78.28"/>
<polygon fill="black" stroke="black" points="550.5,-77.77 545.76,-68.3 543.55,-78.66 550.5,-77.77"/>
</g>
<!-- 12 -->
<g id="node13" class="node">
<title>12</title>
<polygon fill="#8139e5" stroke="black" points="733,-68 616,-68 616,0 733,0 733,-68"/>
<text text-anchor="middle" x="674.5" y="-52.8" font-family="Helvetica,sans-Serif" font-size="14.00">gini = 0.0</text>
<text text-anchor="middle" x="674.5" y="-37.8" font-family="Helvetica,sans-Serif" font-size="14.00">samples = 34</text>
<text text-anchor="middle" x="674.5" y="-22.8" font-family="Helvetica,sans-Serif" font-size="14.00">value = [0, 0, 34]</text>
<text text-anchor="middle" x="674.5" y="-7.8" font-family="Helvetica,sans-Serif" font-size="14.00">class = virginica</text>
</g>
<!-- 10&#45;&gt;12 -->
<g id="edge12" class="edge">
<title>10&#45;&gt;12</title>
<path fill="none" stroke="black" d="M599.81,-103.73C609.92,-94.42 620.66,-84.54 630.75,-75.26"/>
<polygon fill="black" stroke="black" points="633.32,-77.65 638.31,-68.3 628.58,-72.5 633.32,-77.65"/>
</g>
</g>
</svg>
