<?xml version="1.0" encoding="UTF-8" standalone="no"?>
<!DOCTYPE svg PUBLIC "-//W3C//DTD SVG 1.1//EN"
 "http://www.w3.org/Graphics/SVG/1.1/DTD/svg11.dtd">
<!-- Generated by graphviz version 2.50.0 (0)
 -->
<!-- Pages: 1 -->
<svg width="1319pt" height="305pt"
 viewBox="0.00 0.00 1319.04 305.00" xmlns="http://www.w3.org/2000/svg" xmlns:xlink="http://www.w3.org/1999/xlink">
<g id="graph0" class="graph" transform="scale(1 1) rotate(0) translate(4 301)">
<polygon fill="white" stroke="transparent" points="-4,4 -4,-301 1315.04,-301 1315.04,4 -4,4"/>
<!-- 0 -->
<g id="node1" class="node">
<title>0</title>
<ellipse fill="none" stroke="black" cx="653.94" cy="-279" rx="114.28" ry="18"/>
<text text-anchor="middle" x="653.94" y="-275.3" font-family="Times New Roman,serif" font-size="14.00">worst perimeter&lt;106.099998</text>
</g>
<!-- 1 -->
<g id="node2" class="node">
<title>1</title>
<ellipse fill="none" stroke="black" cx="505.94" cy="-192" rx="137.28" ry="18"/>
<text text-anchor="middle" x="505.94" y="-188.3" font-family="Times New Roman,serif" font-size="14.00">worst concave points&lt;0.158099994</text>
</g>
<!-- 0&#45;&gt;1 -->
<g id="edge1" class="edge">
<title>0&#45;&gt;1</title>
<path fill="none" stroke="#0000ff" d="M625.06,-261.41C601.9,-248.11 569.23,-229.35 543.95,-214.83"/>
<polygon fill="#0000ff" stroke="#0000ff" points="545.42,-211.64 535.01,-209.69 541.94,-217.71 545.42,-211.64"/>
<text text-anchor="middle" x="623.44" y="-231.8" font-family="Times New Roman,serif" font-size="14.00">yes, missing</text>
</g>
<!-- 2 -->
<g id="node3" class="node">
<title>2</title>
<ellipse fill="none" stroke="black" cx="836.94" cy="-192" rx="141.88" ry="18"/>
<text text-anchor="middle" x="836.94" y="-188.3" font-family="Times New Roman,serif" font-size="14.00">mean concave points&lt;0.0488649979</text>
</g>
<!-- 0&#45;&gt;2 -->
<g id="edge2" class="edge">
<title>0&#45;&gt;2</title>
<path fill="none" stroke="#ff0000" d="M688.79,-261.81C718.15,-248.18 760.33,-228.59 792.18,-213.79"/>
<polygon fill="#ff0000" stroke="#ff0000" points="793.69,-216.95 801.28,-209.56 790.74,-210.6 793.69,-216.95"/>
<text text-anchor="middle" x="763.94" y="-231.8" font-family="Times New Roman,serif" font-size="14.00">no</text>
</g>
<!-- 3 -->
<g id="node4" class="node">
<title>3</title>
<ellipse fill="none" stroke="black" cx="257.94" cy="-105" rx="108.58" ry="18"/>
<text text-anchor="middle" x="257.94" y="-101.3" font-family="Times New Roman,serif" font-size="14.00">worst smoothness&lt;0.17825</text>
</g>
<!-- 1&#45;&gt;3 -->
<g id="edge3" class="edge">
<title>1&#45;&gt;3</title>
<path fill="none" stroke="#0000ff" d="M459.3,-175.01C417.68,-160.75 356.72,-139.86 312.79,-124.8"/>
<polygon fill="#0000ff" stroke="#0000ff" points="313.72,-121.42 303.13,-121.49 311.45,-128.04 313.72,-121.42"/>
<text text-anchor="middle" x="431.44" y="-144.8" font-family="Times New Roman,serif" font-size="14.00">yes, missing</text>
</g>
<!-- 4 -->
<g id="node5" class="node">
<title>4</title>
<ellipse fill="none" stroke="black" cx="505.94" cy="-105" rx="103.98" ry="18"/>
<text text-anchor="middle" x="505.94" y="-101.3" font-family="Times New Roman,serif" font-size="14.00">mean smoothness&lt;0.1083</text>
</g>
<!-- 1&#45;&gt;4 -->
<g id="edge4" class="edge">
<title>1&#45;&gt;4</title>
<path fill="none" stroke="#ff0000" d="M505.94,-173.8C505.94,-162.16 505.94,-146.55 505.94,-133.24"/>
<polygon fill="#ff0000" stroke="#ff0000" points="509.44,-133.18 505.94,-123.18 502.44,-133.18 509.44,-133.18"/>
<text text-anchor="middle" x="512.94" y="-144.8" font-family="Times New Roman,serif" font-size="14.00">no</text>
</g>
<!-- 5 -->
<g id="node10" class="node">
<title>5</title>
<ellipse fill="none" stroke="black" cx="836.94" cy="-105" rx="104.78" ry="18"/>
<text text-anchor="middle" x="836.94" y="-101.3" font-family="Times New Roman,serif" font-size="14.00">mean texture&lt;19.3600006</text>
</g>
<!-- 2&#45;&gt;5 -->
<g id="edge9" class="edge">
<title>2&#45;&gt;5</title>
<path fill="none" stroke="#0000ff" d="M836.94,-173.8C836.94,-162.16 836.94,-146.55 836.94,-133.24"/>
<polygon fill="#0000ff" stroke="#0000ff" points="840.44,-133.18 836.94,-123.18 833.44,-133.18 840.44,-133.18"/>
<text text-anchor="middle" x="871.44" y="-144.8" font-family="Times New Roman,serif" font-size="14.00">yes, missing</text>
</g>
<!-- 6 -->
<g id="node11" class="node">
<title>6</title>
<ellipse fill="none" stroke="black" cx="1064.94" cy="-105" rx="87.18" ry="18"/>
<text text-anchor="middle" x="1064.94" y="-101.3" font-family="Times New Roman,serif" font-size="14.00">worst texture&lt;20.875</text>
</g>
<!-- 2&#45;&gt;6 -->
<g id="edge10" class="edge">
<title>2&#45;&gt;6</title>
<path fill="none" stroke="#ff0000" d="M880.36,-174.81C918.8,-160.48 974.88,-139.58 1015.13,-124.57"/>
<polygon fill="#ff0000" stroke="#ff0000" points="1016.59,-127.76 1024.74,-120.99 1014.15,-121.2 1016.59,-127.76"/>
<text text-anchor="middle" x="971.94" y="-144.8" font-family="Times New Roman,serif" font-size="14.00">no</text>
</g>
<!-- 7 -->
<g id="node6" class="node">
<title>7</title>
<ellipse fill="none" stroke="black" cx="79.94" cy="-18" rx="79.89" ry="18"/>
<text text-anchor="middle" x="79.94" y="-14.3" font-family="Times New Roman,serif" font-size="14.00">leaf=0.0957983211</text>
</g>
<!-- 3&#45;&gt;7 -->
<g id="edge5" class="edge">
<title>3&#45;&gt;7</title>
<path fill="none" stroke="#0000ff" d="M224.04,-87.81C194.97,-73.93 152.98,-53.88 121.81,-38.99"/>
<polygon fill="#0000ff" stroke="#0000ff" points="123.05,-35.7 112.51,-34.55 120.03,-42.02 123.05,-35.7"/>
<text text-anchor="middle" x="214.44" y="-57.8" font-family="Times New Roman,serif" font-size="14.00">yes, missing</text>
</g>
<!-- 8 -->
<g id="node7" class="node">
<title>8</title>
<ellipse fill="none" stroke="black" cx="257.94" cy="-18" rx="79.89" ry="18"/>
<text text-anchor="middle" x="257.94" y="-14.3" font-family="Times New Roman,serif" font-size="14.00">leaf=0.0111111114</text>
</g>
<!-- 3&#45;&gt;8 -->
<g id="edge6" class="edge">
<title>3&#45;&gt;8</title>
<path fill="none" stroke="#ff0000" d="M257.94,-86.8C257.94,-75.16 257.94,-59.55 257.94,-46.24"/>
<polygon fill="#ff0000" stroke="#ff0000" points="261.44,-46.18 257.94,-36.18 254.44,-46.18 261.44,-46.18"/>
<text text-anchor="middle" x="264.94" y="-57.8" font-family="Times New Roman,serif" font-size="14.00">no</text>
</g>
<!-- 9 -->
<g id="node8" class="node">
<title>9</title>
<ellipse fill="none" stroke="black" cx="391.94" cy="-18" rx="36.29" ry="18"/>
<text text-anchor="middle" x="391.94" y="-14.3" font-family="Times New Roman,serif" font-size="14.00">leaf=&#45;0</text>
</g>
<!-- 4&#45;&gt;9 -->
<g id="edge7" class="edge">
<title>4&#45;&gt;9</title>
<path fill="none" stroke="#0000ff" d="M473.76,-87.85C463.87,-82.36 453.16,-75.86 443.94,-69 433.27,-61.05 422.5,-51.09 413.55,-42.15"/>
<polygon fill="#0000ff" stroke="#0000ff" points="416,-39.65 406.5,-34.96 411,-44.55 416,-39.65"/>
<text text-anchor="middle" x="478.44" y="-57.8" font-family="Times New Roman,serif" font-size="14.00">yes, missing</text>
</g>
<!-- 10 -->
<g id="node9" class="node">
<title>10</title>
<ellipse fill="none" stroke="black" cx="529.94" cy="-18" rx="83.39" ry="18"/>
<text text-anchor="middle" x="529.94" y="-14.3" font-family="Times New Roman,serif" font-size="14.00">leaf=&#45;0.0600000024</text>
</g>
<!-- 4&#45;&gt;10 -->
<g id="edge8" class="edge">
<title>4&#45;&gt;10</title>
<path fill="none" stroke="#ff0000" d="M510.8,-86.8C514.12,-75.05 518.58,-59.24 522.36,-45.84"/>
<polygon fill="#ff0000" stroke="#ff0000" points="525.74,-46.75 525.09,-36.18 519.01,-44.85 525.74,-46.75"/>
<text text-anchor="middle" x="526.94" y="-57.8" font-family="Times New Roman,serif" font-size="14.00">no</text>
</g>
<!-- 11 -->
<g id="node12" class="node">
<title>11</title>
<ellipse fill="none" stroke="black" cx="710.94" cy="-18" rx="79.89" ry="18"/>
<text text-anchor="middle" x="710.94" y="-14.3" font-family="Times New Roman,serif" font-size="14.00">leaf=0.0600000024</text>
</g>
<!-- 5&#45;&gt;11 -->
<g id="edge11" class="edge">
<title>5&#45;&gt;11</title>
<path fill="none" stroke="#0000ff" d="M812.35,-87.41C792.71,-74.16 765.02,-55.48 743.54,-40.99"/>
<polygon fill="#0000ff" stroke="#0000ff" points="745.29,-37.95 735.05,-35.26 741.38,-43.75 745.29,-37.95"/>
<text text-anchor="middle" x="816.44" y="-57.8" font-family="Times New Roman,serif" font-size="14.00">yes, missing</text>
</g>
<!-- 12 -->
<g id="node13" class="node">
<title>12</title>
<ellipse fill="none" stroke="black" cx="887.94" cy="-18" rx="78.79" ry="18"/>
<text text-anchor="middle" x="887.94" y="-14.3" font-family="Times New Roman,serif" font-size="14.00">leaf=&#45;0.042857144</text>
</g>
<!-- 5&#45;&gt;12 -->
<g id="edge12" class="edge">
<title>5&#45;&gt;12</title>
<path fill="none" stroke="#ff0000" d="M847.26,-86.8C854.5,-74.74 864.3,-58.4 872.47,-44.79"/>
<polygon fill="#ff0000" stroke="#ff0000" points="875.67,-46.26 877.81,-35.89 869.67,-42.66 875.67,-46.26"/>
<text text-anchor="middle" x="872.94" y="-57.8" font-family="Times New Roman,serif" font-size="14.00">no</text>
</g>
<!-- 13 -->
<g id="node14" class="node">
<title>13</title>
<ellipse fill="none" stroke="black" cx="1064.94" cy="-18" rx="79.89" ry="18"/>
<text text-anchor="middle" x="1064.94" y="-14.3" font-family="Times New Roman,serif" font-size="14.00">leaf=0.0111111114</text>
</g>
<!-- 6&#45;&gt;13 -->
<g id="edge13" class="edge">
<title>6&#45;&gt;13</title>
<path fill="none" stroke="#0000ff" d="M1064.94,-86.8C1064.94,-75.16 1064.94,-59.55 1064.94,-46.24"/>
<polygon fill="#0000ff" stroke="#0000ff" points="1068.44,-46.18 1064.94,-36.18 1061.44,-46.18 1068.44,-46.18"/>
<text text-anchor="middle" x="1099.44" y="-57.8" font-family="Times New Roman,serif" font-size="14.00">yes, missing</text>
</g>
<!-- 14 -->
<g id="node15" class="node">
<title>14</title>
<ellipse fill="none" stroke="black" cx="1236.94" cy="-18" rx="74.19" ry="18"/>
<text text-anchor="middle" x="1236.94" y="-14.3" font-family="Times New Roman,serif" font-size="14.00">leaf=&#45;0.09710145</text>
</g>
<!-- 6&#45;&gt;14 -->
<g id="edge14" class="edge">
<title>6&#45;&gt;14</title>
<path fill="none" stroke="#ff0000" d="M1098.08,-88.29C1110.6,-82.31 1124.95,-75.39 1137.94,-69 1157.66,-59.3 1179.47,-48.31 1197.59,-39.11"/>
<polygon fill="#ff0000" stroke="#ff0000" points="1199.37,-42.13 1206.69,-34.48 1196.19,-35.89 1199.37,-42.13"/>
<text text-anchor="middle" x="1174.94" y="-57.8" font-family="Times New Roman,serif" font-size="14.00">no</text>
</g>
</g>
</svg>
